Coordinates
version=1
nRows=15
nColumns=46
inDegrees=yes

Units are S.I. units (second, meters, Newtons, ...)
Angles are in degrees.

endheader
time	pelvis_tilt	pelvis_list	pelvis_rotation	pelvis_tx	pelvis_ty	pelvis_tz	bb_angle	bb_tx	bb_ty	bb_tz	hip_flexion_r	hip_adduction_r	hip_rotation_r	knee_angle_r	knee_angle_r_beta	ankle_angle_r	subtalar_angle_r	mtp_angle_r	crank_angle_r	hip_flexion_l	hip_adduction_l	hip_rotation_l	knee_angle_l	knee_angle_l_beta	ankle_angle_l	subtalar_angle_l	mtp_angle_l	crank_angle_l	lumbar_extension	lumbar_bending	lumbar_rotation	arm_flex_r	arm_add_r	arm_rot_r	elbow_flex_r	pro_sup_r	wrist_flex_r	wrist_dev_r	arm_flex_l	arm_add_l	arm_rot_l	elbow_flex_l	pro_sup_l	wrist_flex_l	wrist_dev_l
      5.00500000	    -21.85273820	     -2.42104176	      0.36178288	      0.08100829	      0.99549938	     -0.22567251	      0.00000000	      0.50000000	      0.00000000	      0.25000000	     78.38336620	     -5.65350196	      3.30483198	    106.76708612	      1.86343719	     -2.87810247	     -9.24429025	      0.00000000	      0.00000000	     66.09949318	     -3.18280279	      3.64259788	     47.50626118	      0.82914067	     -3.11683105	    -10.60182927	      0.00000000	      0.00000000	    -48.47520826	      9.40647704	      0.14962969	     84.16577237	     -2.89329439	     22.06649647	     56.64166785	     47.79777912	      0.00000000	      0.00000000	     82.59523410	    -28.83272121	     37.57768624	     63.49040596	     44.70383219	      0.00000000	      0.00000000
      5.01000000	    -21.73059577	     -2.73077498	     -0.32468284	      0.08160498	      0.99649996	     -0.22619698	      0.00000000	      0.50000000	      0.00000000	      0.25000000	     79.71109600	     -4.79806009	      3.60938438	    108.05071131	      1.88584067	     -3.51855540	     -9.45618551	      0.00000000	      0.00000000	     64.12270932	     -3.79167445	      3.68739335	     45.20293200	      0.78893999	     -4.20248352	    -11.22059967	      0.00000000	      0.00000000	    -48.73498244	      9.90957789	      0.51125092	     84.68482891	     -1.56332391	     21.99819043	     55.53733341	     47.59016515	      0.00000000	      0.00000000	     81.73714285	    -29.79968901	     36.69988571	     63.84440220	     44.80108406	      0.00000000	      0.00000000
      5.01500000	    -21.67090707	     -3.14462085	     -1.10145398	      0.08234638	      0.99739195	     -0.22639157	      0.00000000	      0.50000000	      0.00000000	      0.25000000	     81.14579453	     -3.82415762	      3.72175286	    109.25911507	      1.90693130	     -4.14471558	     -9.70532146	      0.00000000	      0.00000000	     62.24265341	     -4.62410801	      3.65087787	     42.99250953	      0.75036085	     -5.15485610	    -11.43140484	      0.00000000	      0.00000000	    -48.96259366	     10.54561166	      0.34602126	     85.73800179	      1.19204947	     21.45537986	     52.50051262	     47.01155449	      0.00000000	      0.00000000	     79.80157006	    -31.80974465	     34.57326807	     65.61809999	     45.31484437	      0.00000000	      0.00000000
      5.02000000	    -21.50116765	     -3.54436890	     -1.87252748	      0.08337454	      0.99850346	     -0.22656411	      0.00000000	      0.50000000	      0.00000000	      0.25000000	     82.47761331	     -2.93111965	      3.78542001	    110.39670863	      1.92678605	     -5.03256470	     -9.65202322	      0.00000000	      0.00000000	     60.21082130	     -5.49045301	      3.49469673	     40.82304712	      0.71249658	     -5.91518438	    -11.25751230	      0.00000000	      0.00000000	    -49.34045383	     10.91713905	      1.20811893	     85.87147237	      1.56261519	     21.48524239	     52.63150557	     47.02084074	      0.00000000	      0.00000000	     79.14033944	    -32.20401257	     34.38499684	     65.48684226	     45.31297939	      0.00000000	      0.00000000
      5.02500000	    -21.18969994	     -3.75799296	     -2.72088373	      0.08469804	      0.99992367	     -0.22657121	      0.00000000	      0.50000000	      0.00000000	      0.25000000	     83.69866656	     -2.05616344	      3.92832990	    111.42820259	      1.94478901	     -6.12999757	     -9.93334841	      0.00000000	      0.00000000	     57.94837500	     -6.32934835	      2.97948691	     38.63295569	      0.67427228	     -6.82779213	    -11.39197649	      0.00000000	      0.00000000	    -49.87650128	     11.02568529	      1.85404025	     86.06285673	      2.06398429	     21.53204426	     52.56685937	     46.99520802	      0.00000000	      0.00000000	     78.43984077	    -32.66470986	     33.95229967	     65.41942480	     45.31303916	      0.00000000	      0.00000000
      5.03000000	    -20.80162502	     -3.94277425	     -3.48747139	      0.08590139	      1.00147540	     -0.22671654	      0.00000000	      0.50000000	      0.00000000	      0.25000000	     84.87117622	     -1.29759150	      4.03125485	    112.36530160	      1.96114448	     -7.56999552	    -10.48815588	      0.00000000	      0.00000000	     55.63112553	     -7.05522047	      2.43009968	     36.48669263	      0.63681292	     -7.80449356	    -11.58795170	      0.00000000	      0.00000000	    -50.51219507	     11.18184006	      2.32770371	     86.38491997	      2.74331434	     21.57434708	     52.14436799	     46.90202500	      0.00000000	      0.00000000	     77.71762859	    -33.18900802	     33.15842741	     65.55677845	     45.34353280	      0.00000000	      0.00000000
      5.03500000	    -20.59311755	     -4.22609716	     -4.22977576	      0.08708903	      1.00270602	     -0.22680820	      0.00000000	      0.50000000	      0.00000000	      0.25000000	     86.26155536	     -0.63897381	      3.91715145	    113.18205625	      1.97539954	     -8.99197781	    -10.84622986	      0.00000000	      0.00000000	     53.66452422	     -7.88338700	      1.84977391	     34.65415170	      0.60482905	     -8.60036232	    -11.26674747	      0.00000000	      0.00000000	    -50.96417098	     11.43287610	      2.80860564	     86.67075197	      3.47251517	     21.64309629	     51.58795888	     46.79205524	      0.00000000	      0.00000000	     76.71798205	    -33.82821710	     32.22054385	     65.86922155	     45.41524180	      0.00000000	      0.00000000
      5.04000000	    -20.37361091	     -4.53154825	     -4.87808939	      0.08813703	      1.00386556	     -0.22690097	      0.00000000	      0.50000000	      0.00000000	      0.25000000	     87.66378128	     -0.05573630	      3.77757713	    113.92821968	      1.98842254	    -10.37077075	    -11.06372191	      0.00000000	      0.00000000	     51.83525430	     -8.68876703	      1.23847464	     33.09825489	      0.57767352	     -9.21110644	    -10.58114973	      0.00000000	      0.00000000	    -51.45480586	     11.85880760	      2.82545438	     87.21776299	      4.97671703	     21.69320163	     50.14963477	     46.44635776	      0.00000000	      0.00000000	     74.78827165	    -35.06402946	     29.73142740	     67.60151517	     45.86820781	      0.00000000	      0.00000000
      5.04500000	    -20.00935561	     -4.69725865	     -5.48680668	      0.08918077	      1.00539086	     -0.22695789	      0.00000000	      0.50000000	      0.00000000	      0.25000000	     88.91576736	      0.40672396	      3.72938262	    114.58157144	      1.99982568	    -11.77382287	    -11.03372879	      0.00000000	      0.00000000	     49.86130292	     -9.38011463	      0.42542589	     31.60798412	      0.55166339	     -9.87304166	     -9.69962674	      0.00000000	      0.00000000	    -52.09215418	     11.96793662	      3.36151785	     87.33791199	      5.26386411	     21.88008754	     50.17412510	     46.43783814	      0.00000000	      0.00000000	     74.34893209	    -35.34676634	     29.54993783	     67.62292685	     45.91854532	      0.00000000	      0.00000000
      5.05000000	    -19.90121567	     -5.00548214	     -6.01769421	      0.09003339	      1.00640679	     -0.22725046	      0.00000000	      0.50000000	      0.00000000	      0.25000000	     90.40173106	      0.76080955	      3.50163769	    115.11731749	      2.00917622	    -12.91121279	    -10.65998156	      0.00000000	      0.00000000	     48.35218223	    -10.09008607	     -0.12324834	     30.43252234	      0.53114771	    -10.45255383	     -8.93655443	      0.00000000	      0.00000000	    -52.47367886	     12.28781418	      3.99836198	     87.46008807	      5.51596713	     22.02091207	     50.28689389	     46.45341401	      0.00000000	      0.00000000	     73.84102344	    -35.55820252	     29.48347416	     67.61823181	     45.93735107	      0.00000000	      0.00000000
      5.05500000	    -19.55343633	     -5.11405350	     -6.76362301	      0.09124587	      1.00814523	     -0.22713243	      0.00000000	      0.50000000	      0.00000000	      0.25000000	     91.57526000	      1.28526188	      3.35861509	    115.52391610	      2.01627270	    -14.26611485	    -11.13228938	      0.00000000	      0.00000000	     46.51861681	    -10.90055208	     -1.42303598	     29.33797139	      0.51204420	    -10.76175684	     -7.74337081	      0.00000000	      0.00000000	    -53.15024768	     12.22670468	      4.30247562	     87.59362459	      5.82607999	     22.66657308	     50.19202961	     46.44713164	      0.00000000	      0.00000000	     73.04738386	    -36.10958477	     28.71905511	     68.43019491	     46.11404662	      0.00000000	      0.00000000
      5.06000000	    -19.35227284	     -5.25369748	     -7.30725933	      0.09212287	      1.00944372	     -0.22750480	      0.00000000	      0.50000000	      0.00000000	      0.25000000	     92.87606544	      1.61241552	      3.33146537	    115.90129007	      2.02285912	    -15.19871513	    -10.78051297	      0.00000000	      0.00000000	     45.01336164	    -11.50174726	     -2.33526871	     28.45020144	      0.49654969	    -11.18306962	     -6.63731910	      0.00000000	      0.00000000	    -53.64849458	     12.30077691	      4.47846424	     87.76137278	      6.18964154	     23.40773797	     50.14201291	     46.44576508	      0.00000000	      0.00000000	     72.11400229	    -36.61823714	     27.91311220	     69.34050662	     46.31325119	      0.00000000	      0.00000000
      5.06500000	    -19.36408801	     -5.47769554	     -7.58665862	      0.09277628	      1.01034568	     -0.22834622	      0.00000000	      0.50000000	      0.00000000	      0.25000000	     94.31243939	      1.61192405	      3.16683335	    116.16316298	      2.02742966	    -15.94189325	    -10.21734674	      0.00000000	      0.00000000	     43.94572161	    -11.93434609	     -2.84825600	     27.81142836	      0.48540099	    -11.68434302	     -5.94121396	      0.00000000	      0.00000000	    -53.90301427	     12.75386869	      4.86585223	     87.88358826	      6.36548723	     23.56133828	     50.21265807	     46.45625623	      0.00000000	      0.00000000	     71.70877550	    -36.78917273	     27.81697283	     69.47645680	     46.35346665	      0.00000000	      0.00000000
      5.07000000	    -19.26499577	     -5.63877388	     -7.71491834	      0.09317848	      1.01101436	     -0.22918761	      0.00000000	      0.50000000	      0.00000000	      0.25000000	     95.65866790	      1.42220025	      3.01473137	    116.53929365	      2.03399438	    -16.18612119	    -10.01457963	      0.00000000	      0.00000000	     43.01643099	    -12.21213707	     -3.22270023	     27.63051706	      0.48224350	    -11.88681664	     -5.66634475	      0.00000000	      0.00000000	    -54.17530619	     13.05063136	      5.02616423	     87.89157483	      6.44392749	     23.63417522	     50.22515276	     46.46121054	      0.00000000	      0.00000000	     71.63226969	    -36.84398968	     27.77258939	     69.54114502	     46.36718297	      0.00000000	      0.00000000
      5.07500000	    -19.02044649	     -5.46635244	     -8.33647575	      0.09403999	      1.01263039	     -0.22885694	      0.00000000	      0.50000000	      0.00000000	      0.25000000	     96.74945911	      1.85439963	      3.26300572	    116.61863356	      2.03537912	    -16.65777815	     -8.97850104	      0.00000000	      0.00000000	     41.62515068	    -12.77723839	     -4.93047193	     27.13629559	      0.47361770	    -11.99974084	     -3.41091915	      0.00000000	      0.00000000	    -54.72598891	     12.77043691	      4.85429702	     88.03211165	      6.91202483	     24.52233982	     50.42258281	     46.50386945	      0.00000000	      0.00000000	     70.61231579	    -37.71328238	     26.79395540	     70.95686372	     46.62942698	      0.00000000	      0.00000000
